<svg xmlns="http://www.w3.org/2000/svg" xmlns:xlink="http://www.w3.org/1999/xlink" viewBox="0 0 44 44"><defs><path id="a" d="M0 0h44v44H0z"/></defs><clipPath id="b"><use xlink:href="#a" overflow="visible"/></clipPath><path clip-path="url(#b)" stroke="#fff" d="M22 43.5c11.9 0 21.5-9.6 21.5-21.5S33.9.5 22 .5.5 10.1.5 22 10.1 43.5 22 43.5z" fill="none"/><path clip-path="url(#b)" fill="#fff" d="M17.8 34.6V22h-3.3v-4.5h3.3v-3.9c0-3 2-5.8 6.5-5.8 1.8 0 3.2.2 3.2.2l-.1 4.2h-2.9c-1.6 0-1.9.8-1.9 2v3.3h4.9l-.2 4.5h-4.7v12.5h-4.8z"/></svg>