<svg xmlns="http://www.w3.org/2000/svg" xmlns:xlink="http://www.w3.org/1999/xlink" viewBox="0 0 44 44"><defs><path id="a" d="M0 0h44v44H0z"/></defs><clipPath id="b"><use xlink:href="#a" overflow="visible"/></clipPath><path clip-path="url(#b)" stroke="#fff" d="M22 43.5c11.9 0 21.5-9.6 21.5-21.5S33.9.5 22 .5.5 10.1.5 22 10.1 43.5 22 43.5z" fill="none"/><path clip-path="url(#b)" fill="#fff" d="M10.2 30.5c2.8.2 5.3-.5 7.7-2.2-2.5-.3-4.1-1.5-5-3.8h2.2c-2.5-1-3.9-2.7-4.1-5.4.8.2 1.5.4 2.2.6 0-.1.1-.1.1-.2-1.3-1-2-2.3-2.2-3.9-.1-1.1.1-2.1.7-3.1 2.9 3.4 6.6 5.3 11.1 5.6 0-.8-.1-1.5 0-2.2.4-2 1.6-3.4 3.6-4.1 1.9-.7 3.7-.3 5.3 1.1.3.2.5.4.9.2l2.4-.9c.1 0 .2-.1.4-.2-.4 1.2-1.1 2.1-2 2.9.4-.1.9-.2 1.3-.3.4-.1.9-.3 1.4-.5-.6.9-1.2 1.6-2 2.2-.4.3-.6.7-.6 1.2-.2 5.6-2.5 10.1-7.3 13.1-2.8 1.8-6 2.4-9.4 2.1-2.3-.2-4.5-.9-6.4-2.1-.1 0-.1-.1-.2-.1-.1.1-.1.1-.1 0"/></svg>