<svg viewBox="0 0 44 44" xmlns="http://www.w3.org/2000/svg" fill-rule="evenodd" clip-rule="evenodd"><path d="M22 43.5c11.9 0 21.5-9.6 21.5-21.5S33.9.5 22 .5.5 10.1.5 22 10.1 43.5 22 43.5z" stroke="#fff" fill="none"/><path d="M25.95 11.47h-7.9c-3.633 0-6.58 2.947-6.58 6.58v7.9c0 3.633 2.946 6.58 6.58 6.58h7.9c3.633 0 6.58-2.946 6.58-6.58v-7.9c0-3.633-2.947-6.58-6.58-6.58zm4.606 14.48c0 2.54-2.067 4.606-4.607 4.606h-7.9c-2.54 0-4.606-2.067-4.606-4.607v-7.9c0-2.54 2.067-4.606 4.607-4.606h7.9c2.54 0 4.606 2.066 4.606 4.607v7.9zM22 16.735c-2.908 0-5.265 2.357-5.265 5.265 0 2.908 2.357 5.265 5.265 5.265 2.907 0 5.265-2.357 5.265-5.265 0-2.908-2.357-5.265-5.265-5.265zm0 8.556c-1.814 0-3.29-1.476-3.29-3.29 0-1.815 1.476-3.29 3.29-3.29s3.29 1.474 3.29 3.29c0 1.814-1.476 3.29-3.29 3.29z" fill="#fff"/><circle cx="27.66" cy="16.34" r=".702" fill="#fff"/></svg>