<svg viewBox="0 0 44 44" xmlns="http://www.w3.org/2000/svg" fill-rule="evenodd" clip-rule="evenodd"><path d="M22 43.5c11.9 0 21.5-9.6 21.5-21.5S33.9.5 22 .5.5 10.1.5 22 10.1 43.5 22 43.5z" stroke="#fff" fill="none"/><path d="M25.95 11.47h-7.9a6.581 6.581 0 00-6.58 6.58v7.9a6.58 6.58 0 006.58 6.58h7.9a6.58 6.58 0 006.58-6.58v-7.9a6.581 6.581 0 00-6.58-6.58zm4.606 14.48a4.612 4.612 0 01-4.607 4.606h-7.9a4.612 4.612 0 01-4.606-4.607v-7.9a4.612 4.612 0 014.607-4.606h7.9a4.611 4.611 0 014.606 4.607v7.9zM22 16.735a5.265 5.265 0 100 10.53 5.265 5.265 0 000-10.53zm0 8.556a3.294 3.294 0 01-3.29-3.29c0-1.815 1.476-3.29 3.29-3.29s3.29 1.474 3.29 3.29a3.294 3.294 0 01-3.29 3.29z" fill="#fff"/><circle cx="27.66" cy="16.34" r=".702" fill="#fff"/></svg>